<svg width="280" height="41" viewBox="0 0 280 41" fill="none" xmlns="http://www.w3.org/2000/svg">
<path d="M19.4017 9.33922C18.1672 9.33922 17.0649 9.60377 16.0949 10.1329C15.1249 10.6443 14.296 11.3939 13.6082 12.3815C12.9203 13.3691 12.3913 14.5772 12.0209 16.0058C11.6682 17.4167 11.4918 19.0216 11.4918 20.8205C11.4918 23.2543 11.8004 25.3001 12.4177 26.9579C13.035 28.6157 13.9697 29.8679 15.2219 30.7145C16.4917 31.561 18.079 31.9843 19.9837 31.9843C21.7121 31.9843 23.3699 31.7462 24.9571 31.27C26.5621 30.7938 28.1758 30.2206 29.7983 29.5505V38.3863C28.0876 39.1446 26.3328 39.6914 24.5339 40.0265C22.7526 40.3615 20.8567 40.5291 18.8462 40.5291C14.6487 40.5291 11.2096 39.7002 8.5289 38.0424C5.86581 36.3669 3.89936 34.0477 2.62954 31.0848C1.37736 28.1219 0.751269 24.6828 0.751269 20.7676C0.751269 17.8399 1.15691 15.1592 1.96818 12.7254C2.79708 10.2916 4.00517 8.18404 5.59244 6.40277C7.17972 4.60386 9.13735 3.21941 11.4653 2.24941C13.811 1.26178 16.4917 0.767959 19.5075 0.767959C21.377 0.767959 23.3434 0.988413 25.4069 1.42932C27.488 1.85259 29.5161 2.54041 31.4914 3.49277L28.2904 11.7201C26.8795 11.0499 25.451 10.4856 24.0048 10.027C22.5586 9.56849 21.0242 9.33922 19.4017 9.33922ZM69.7616 20.6088C69.7616 23.5894 69.4 26.3054 68.6769 28.7568C67.9715 31.1906 66.8604 33.2894 65.3437 35.053C63.8269 36.8166 61.8781 38.1746 59.4972 39.127C57.1163 40.0617 54.268 40.5291 50.9524 40.5291C47.7073 40.5291 44.8943 40.0617 42.5134 39.127C40.1502 38.1746 38.2013 36.8255 36.667 35.0795C35.1326 33.3158 33.9951 31.2083 33.2543 28.7568C32.5136 26.3054 32.1433 23.5717 32.1433 20.5559C32.1433 16.5348 32.8046 13.0429 34.1273 10.0799C35.4677 7.09941 37.5312 4.79786 40.3177 3.17532C43.1042 1.53514 46.6668 0.71505 51.0053 0.71505C55.4144 0.71505 58.9946 1.53514 61.7459 3.17532C64.5148 4.8155 66.5429 7.12586 67.8304 10.1064C69.1178 13.0869 69.7616 16.5878 69.7616 20.6088ZM43.1483 20.6088C43.1483 22.9368 43.4129 24.9386 43.942 26.614C44.4711 28.2895 45.3088 29.5769 46.4551 30.4764C47.6015 31.3758 49.1006 31.8256 50.9524 31.8256C52.8748 31.8256 54.4003 31.3758 55.529 30.4764C56.6754 29.5769 57.4955 28.2895 57.9893 26.614C58.5008 24.9386 58.7565 22.9368 58.7565 20.6088C58.7565 17.1168 58.1745 14.3568 57.0105 12.3286C55.8465 10.3004 53.8448 9.28631 51.0053 9.28631C49.1182 9.28631 47.5927 9.74486 46.4287 10.6619C45.2823 11.579 44.4446 12.8841 43.9155 14.5772C43.4041 16.2703 43.1483 18.2808 43.1483 20.6088ZM109.778 40H96.0743L81.9476 12.7519H81.7095C81.7977 13.5808 81.877 14.5772 81.9476 15.7412C82.0181 16.9052 82.0798 18.0957 82.1328 19.3126C82.1857 20.5118 82.2121 21.5965 82.2121 22.5665V40H72.953V1.3235H86.6036L100.677 28.2013H100.836C100.783 27.3547 100.73 26.3759 100.677 25.2648C100.624 24.1361 100.572 22.9986 100.519 21.8522C100.483 20.7058 100.466 19.6918 100.466 18.8099V1.3235H109.778V40ZM151.17 40H137.466L123.339 12.7519H123.101C123.189 13.5808 123.269 14.5772 123.339 15.7412C123.41 16.9052 123.472 18.0957 123.525 19.3126C123.577 20.5118 123.604 21.5965 123.604 22.5665V40H114.345V1.3235H127.995L142.069 28.2013H142.228C142.175 27.3547 142.122 26.3759 142.069 25.2648C142.016 24.1361 141.963 22.9986 141.91 21.8522C141.875 20.7058 141.858 19.6918 141.858 18.8099V1.3235H151.17V40ZM178.699 40H155.737V1.3235H178.699V9.70958H166.186V15.7941H177.773V24.1802H166.186V31.4816H178.699V40ZM198.901 9.33922C197.666 9.33922 196.564 9.60377 195.594 10.1329C194.624 10.6443 193.795 11.3939 193.107 12.3815C192.42 13.3691 191.89 14.5772 191.52 16.0058C191.167 17.4167 190.991 19.0216 190.991 20.8205C190.991 23.2543 191.3 25.3001 191.917 26.9579C192.534 28.6157 193.469 29.8679 194.721 30.7145C195.991 31.561 197.578 31.9843 199.483 31.9843C201.211 31.9843 202.869 31.7462 204.456 31.27C206.061 30.7938 207.675 30.2206 209.297 29.5505V38.3863C207.587 39.1446 205.832 39.6914 204.033 40.0265C202.252 40.3615 200.356 40.5291 198.345 40.5291C194.148 40.5291 190.709 39.7002 188.028 38.0424C185.365 36.3669 183.399 34.0477 182.129 31.0848C180.877 28.1219 180.25 24.6828 180.25 20.7676C180.25 17.8399 180.656 15.1592 181.467 12.7254C182.296 10.2916 183.504 8.18404 185.092 6.40277C186.679 4.60386 188.637 3.21941 190.965 2.24941C193.31 1.26178 195.991 0.767959 199.007 0.767959C200.876 0.767959 202.843 0.988413 204.906 1.42932C206.987 1.85259 209.015 2.54041 210.991 3.49277L207.79 11.7201C206.379 11.0499 204.95 10.4856 203.504 10.027C202.058 9.56849 200.523 9.33922 198.901 9.33922ZM230.134 40H219.685V9.86831H210.24V1.3235H239.552V9.86831H230.134V40Z" fill="#319945"/>
<path d="M241.288 40V1.3235H251.791V40H241.288ZM266.675 40H256.384V1.3235H279.241V9.70958H266.675V17.0904H278.262V25.4765H266.675V40Z" fill="#F44336"/>
</svg>
