<svg width="26" height="25" viewBox="0 0 26 25" fill="none" xmlns="http://www.w3.org/2000/svg">
<path d="M17.6944 0C22.4877 0 25.5 2.99033 25.5 7.81662V11.0268C25.5 11.2795 25.3989 11.5217 25.2192 11.6993C25.0395 11.8769 24.7962 11.9752 24.5435 11.9723V11.9503C24.0153 11.9503 23.5871 11.5221 23.5871 10.9938V7.81662C23.5871 4.00176 21.4982 1.91293 17.6944 1.91293H8.31662C4.51275 1.91293 2.41293 4.01275 2.41293 7.81662V17.1944C2.41293 20.9872 4.51275 23.0871 8.31662 23.0871H17.6944C21.4982 23.0871 23.5871 20.9872 23.5871 17.1944C23.5871 16.6661 24.0153 16.2379 24.5435 16.2379C25.0718 16.2379 25.5 16.6661 25.5 17.1944C25.5 22.0097 22.5097 25 17.6944 25H8.31662C3.49033 25 0.5 22.0097 0.5 17.1944V7.81662C0.5 2.99033 3.49033 0 8.31662 0H17.6944ZM13.0879 14.5558C13.3427 14.5615 13.5843 14.6697 13.7582 14.856C13.932 15.0422 14.0233 15.2908 14.0114 15.5453V16.7546L13.9944 16.9048C13.9561 17.1016 13.8566 17.2829 13.7081 17.4215C13.5225 17.5947 13.2757 17.687 13.022 17.6781C12.4963 17.6543 12.086 17.2147 12.0985 16.6887V15.4793C12.1071 15.2256 12.2162 14.9857 12.4018 14.8125C12.5874 14.6393 12.8342 14.5469 13.0879 14.5558ZM13.044 7.31091C13.1504 7.31088 13.255 7.32879 13.3536 7.36296C13.7472 7.48149 14.0334 7.8465 14.0334 8.27836L14.0325 11.2675L17.2876 11.2687C17.3972 11.2674 17.5051 11.2852 17.6067 11.3202C17.7549 11.3654 17.8923 11.4474 18.004 11.5605C18.1817 11.7402 18.28 11.9835 18.2771 12.2361C18.2771 12.7559 17.8622 13.1807 17.3426 13.1926H8.82234C8.73284 13.1906 8.6464 13.1764 8.56458 13.1518C8.14644 13.0476 7.83786 12.6727 7.83283 12.2252C7.82996 11.9725 7.92827 11.7292 8.1059 11.5495C8.28353 11.3698 8.52569 11.2687 8.77836 11.2687H12.0765V8.26737C12.0883 7.73984 12.5163 7.3167 13.044 7.31091Z" fill="black"/>
</svg>
